<svg version="1.1" xmlns="http://www.w3.org/2000/svg" style="display: block;" viewBox="0 0 2048 2048" width="512" height="512" preserveAspectRatio="none">
<path transform="translate(0,0)" fill="rgb(9,91,147)" d="M 200.525 2048 C 194.703 2045.31 179.02 2042.07 172.097 2040.28 C 94.2647 2020.14 30.4571 1954.27 10.1076 1876.83 C 1.4756 1843.98 4.20016 1795.76 4.2049 1761 L 4.18674 1625.2 L 4.1922 1111.11 L 4.13559 510.518 L 4.2294 318.256 C 4.18534 281.525 3.49131 242.876 5.05072 206.267 C 6.27968 177.416 20.8813 138.886 36.0522 113.893 C 67.0195 61.8469 117.691 24.5109 176.574 10.3519 C 211.789 1.82193 256.592 4.12143 293.495 4.14767 L 428.063 4.19373 L 949 4.17939 L 1547.18 4.18032 L 1738.04 4.18834 C 1835.76 4.20311 1912.42 -4.38685 1986.26 74.8462 C 2022.5 113.739 2035.72 147.487 2048 198.448 L 2048 1853.76 C 2044.24 1867.55 2041.82 1879.87 2036.79 1893.48 C 2017.14 1946.63 1985.7 1989.42 1935.89 2017.41 C 1915.48 2028.88 1899.82 2035.33 1877.4 2041.58 C 1873.54 2042.66 1855.56 2047.2 1853.74 2048 L 200.525 2048 z"/>
<path transform="translate(0,0)" fill="rgb(254,254,254)" d="M 882.307 754.334 C 917.329 731.964 943.639 707.824 960.703 669.061 C 968.963 650.147 974.303 630.087 976.539 609.569 C 979.223 586.217 978.033 542.238 978.026 516.779 L 977.979 359.795 C 977.887 340.18 974.912 307.419 982.95 290.365 C 997.872 258.703 1066.28 263.574 1072.81 298.194 C 1075.84 314.201 1074.13 348.099 1074.12 365.749 L 1074.09 506.447 C 1074.09 527.821 1074.5 550.213 1074.09 571.51 C 1072.57 651.323 1100.33 713.167 1170.96 753.703 L 1172.1 754.453 C 1194.07 768.678 1217.83 765.632 1224.15 798.256 C 1230.4 830.501 1204.02 860.246 1171.37 847.559 C 1168.46 846.426 1159.21 843.016 1156.54 842.602 C 1100.85 812.313 1049.03 764.762 1026.14 704.426 C 1002.86 763.812 952.132 813.186 896.199 842.598 C 901.501 860.196 905.756 883.635 911.047 902.614 C 923.243 946.362 934.845 988.927 942.238 1033.78 C 960.97 1147.42 918.536 1246.27 910.249 1357.88 C 908.514 1381.24 907.591 1405.19 908.143 1428.69 C 908.832 1458.03 913.363 1489.15 907.965 1518.14 C 903.427 1542.51 891.821 1567.96 876.997 1587.75 C 863.602 1605.31 847.032 1620.2 828.147 1631.65 C 809.203 1643.01 790.975 1648.15 770.348 1655.46 C 754.266 1661.05 738.469 1667.43 723.017 1674.58 C 644.489 1711.1 582.035 1767.27 493.276 1779.47 C 389.879 1793.67 307.643 1727.71 296.406 1624.86 C 293.793 1600.96 293.732 1580.03 293.874 1556 C 294.458 1506.4 297.182 1456.84 302.039 1407.47 C 325.567 1169.16 385.612 931.497 500.949 720.357 C 528.675 668.463 560.467 618.845 596.028 571.971 C 632.099 525.289 692.615 449.191 753.809 441.704 C 777.112 438.785 800.608 445.377 818.991 459.992 C 869.522 500.537 869.04 599.906 873.338 660.097 C 875.544 691.579 878.534 723.001 882.307 754.334 z"/>
<path transform="translate(0,0)" fill="rgb(185,223,249)" d="M 1170.96 753.703 C 1170.84 734.505 1176.24 701.397 1177.97 681.171 C 1183.47 616.923 1177.77 514.436 1227.57 465.797 C 1244.55 449.4 1267.4 440.49 1291 441.058 C 1319.6 441.569 1345.65 455.801 1366.65 474.256 C 1432.86 532.416 1487.92 609.859 1531.89 685.601 C 1655.74 899.051 1721.87 1142.25 1748.27 1386.49 C 1755.77 1455.8 1758.25 1518.06 1758.34 1587.6 C 1758.47 1695.59 1696.71 1784.37 1581 1781.39 C 1471.4 1778.57 1391.72 1692.7 1292.38 1659.09 C 1271.25 1651.82 1250.18 1645.79 1230.35 1635.18 C 1214.28 1626.48 1199.73 1615.23 1187.27 1601.87 C 1155.98 1568.22 1138.16 1520.07 1142.12 1474.51 C 1147.67 1410.64 1143.61 1347.9 1132.67 1284.79 C 1122.81 1227.86 1108.04 1171.05 1106.06 1112.92 C 1103.11 1040.91 1120.48 978.438 1139.63 909.88 C 1145.48 888.94 1150.53 862.425 1156.54 842.602 C 1159.21 843.016 1168.46 846.426 1171.37 847.559 C 1204.02 860.246 1230.4 830.501 1224.15 798.256 C 1217.83 765.632 1194.07 768.678 1172.1 754.453 L 1170.96 753.703 z"/>
<path transform="translate(0,0)" fill="rgb(9,91,147)" d="M 1332.8 1077.77 C 1384.19 1074.96 1428.18 1114.27 1431.13 1165.66 C 1434.08 1217.04 1394.89 1261.13 1343.51 1264.22 C 1291.93 1267.33 1247.64 1227.96 1244.68 1176.37 C 1241.71 1124.78 1281.2 1080.6 1332.8 1077.77 z"/>
</svg>